<?xml version="1.0" encoding="UTF-8" standalone="no"?>
<!-- Generator: Adobe Illustrator 15.1.0, SVG Export Plug-In . SVG Version: 6.00 Build 0)  -->

<svg xmlns:dc="http://purl.org/dc/elements/1.1/" xmlns:cc="http://creativecommons.org/ns#" xmlns:rdf="http://www.w3.org/1999/02/22-rdf-syntax-ns#" xmlns:svg="http://www.w3.org/2000/svg" xmlns="http://www.w3.org/2000/svg" xmlns:sodipodi="http://sodipodi.sourceforge.net/DTD/sodipodi-0.dtd" xmlns:inkscape="http://www.inkscape.org/namespaces/inkscape" version="1.1" id="Logo" x="0px" y="0px" width="701.073" height="175.91499" viewBox="0 0 701.073 175.91499" enable-background="new 0 0 701.073 185.149" xml:space="preserve" inkscape:version="0.48.4 r9939" sodipodi:docname="projectiv-logo.svg"><metadata id="metadata51"><rdf:RDF><cc:Work rdf:about=""><dc:format>image/svg+xml</dc:format><dc:type rdf:resource="http://purl.org/dc/dcmitype/StillImage" /></cc:Work></rdf:RDF></metadata><defs id="defs49" /><sodipodi:namedview pagecolor="#ffffff" bordercolor="#666666" borderopacity="1" objecttolerance="10" gridtolerance="10" guidetolerance="10" inkscape:pageopacity="0" inkscape:pageshadow="2" inkscape:window-width="1600" inkscape:window-height="837" id="namedview47" showgrid="false" inkscape:snap-page="true" inkscape:object-nodes="true" fit-margin-top="0" fit-margin-left="0" fit-margin-right="0" fit-margin-bottom="0" inkscape:zoom="1.1310813" inkscape:cx="538.01409" inkscape:cy="78.376199" inkscape:window-x="-8" inkscape:window-y="-8" inkscape:window-maximized="1" inkscape:current-layer="Logo" />

<g id="g5" transform="translate(0,514.765)">
	<path d="m 48.588,-475.287 c 6.795,0 13.123,1.268 18.98,3.796 5.856,2.532 11.025,6.002 15.509,10.412 4.481,4.413 7.988,9.544 10.521,15.401 2.528,5.856 3.796,12.184 3.796,18.979 0,6.653 -1.268,12.943 -3.796,18.871 -2.532,5.932 -6.04,11.137 -10.521,15.618 -4.484,4.483 -9.652,7.991 -15.509,10.52 -5.857,2.532 -12.185,3.796 -18.98,3.796 H 19.305 v 39.044 H 0 v -87.849 c 0,-6.795 1.264,-13.123 3.796,-18.979 2.528,-5.857 5.999,-10.988 10.412,-15.401 4.409,-4.41 9.578,-7.88 15.509,-10.412 5.928,-2.529 12.218,-3.796 18.871,-3.796 z m 11.496,75.81 c 3.613,-1.519 6.759,-3.613 9.436,-6.291 2.674,-2.674 4.772,-5.819 6.291,-9.436 1.518,-3.612 2.277,-7.445 2.277,-11.496 0,-4.046 -0.759,-7.843 -2.277,-11.388 -1.519,-3.542 -3.617,-6.65 -6.291,-9.327 -2.677,-2.674 -5.823,-4.772 -9.436,-6.291 -3.616,-1.519 -7.449,-2.278 -11.496,-2.278 -4.05,0 -7.846,0.759 -11.388,2.278 -3.545,1.518 -6.653,3.616 -9.327,6.291 -2.678,2.677 -4.772,5.785 -6.291,9.327 -1.519,3.545 -2.278,7.341 -2.278,11.388 v 29.5 h 29.283 c 4.048,10e-4 7.881,-0.758 11.497,-2.277 z" id="path7" inkscape:connector-curvature="0" style="fill:#ffffff" />
	<path d="m 162.248,-475.721 v 19.305 h -9.761 c -4.05,0 -7.846,0.759 -11.388,2.277 -3.545,1.519 -6.653,3.617 -9.327,6.291 -2.678,2.678 -4.772,5.785 -6.291,9.328 -1.518,3.545 -2.277,7.341 -2.277,11.388 v 48.805 h -19.522 v -48.805 c 0,-6.795 1.264,-13.123 3.796,-18.98 2.528,-5.856 6.036,-10.988 10.52,-15.4 4.481,-4.41 9.687,-7.88 15.618,-10.412 5.928,-2.528 12.218,-3.796 18.871,-3.796 h 9.761 z" id="path9" inkscape:connector-curvature="0" style="fill:#ffffff" />
	<path d="m 167.885,-426.699 c 0,-6.795 1.264,-13.123 3.796,-18.979 2.528,-5.857 5.999,-10.988 10.412,-15.401 4.409,-4.41 9.578,-7.88 15.509,-10.412 5.928,-2.528 12.218,-3.796 18.871,-3.796 6.796,0 13.123,1.268 18.98,3.796 5.856,2.532 11.025,6.002 15.509,10.412 4.481,4.413 7.989,9.544 10.521,15.401 2.528,5.856 3.796,12.184 3.796,18.979 0,6.653 -1.268,12.943 -3.796,18.871 -2.532,5.932 -6.04,11.137 -10.521,15.618 -4.483,4.483 -9.652,7.991 -15.509,10.52 -5.857,2.532 -12.184,3.796 -18.98,3.796 -6.653,0 -12.943,-1.264 -18.871,-3.796 -5.931,-2.528 -11.1,-6.036 -15.509,-10.52 -4.413,-4.481 -7.883,-9.687 -10.412,-15.618 -2.532,-5.928 -3.796,-12.218 -3.796,-18.871 z m 19.088,0 c 0,4.051 0.759,7.884 2.278,11.496 1.519,3.616 3.613,6.762 6.291,9.436 2.674,2.678 5.819,4.772 9.436,6.291 3.613,1.519 7.446,2.277 11.496,2.277 4.047,0 7.88,-0.759 11.496,-2.277 3.613,-1.519 6.759,-3.613 9.436,-6.291 2.674,-2.674 4.772,-5.819 6.291,-9.436 1.519,-3.612 2.278,-7.445 2.278,-11.496 0,-4.046 -0.759,-7.843 -2.278,-11.388 -1.519,-3.542 -3.617,-6.65 -6.291,-9.327 -2.677,-2.674 -5.823,-4.772 -9.436,-6.291 -3.616,-1.519 -7.449,-2.278 -11.496,-2.278 -4.05,0 -7.883,0.759 -11.496,2.278 -3.616,1.518 -6.762,3.616 -9.436,6.291 -2.678,2.677 -4.772,5.785 -6.291,9.327 -1.519,3.545 -2.278,7.341 -2.278,11.388 z" id="path11" inkscape:connector-curvature="0" style="fill:#ffffff" />
	<path d="m 296.557,-475.287 v 87.632 c 0,6.796 -1.268,13.123 -3.796,18.979 -2.531,5.856 -6.002,11.025 -10.411,15.51 -4.413,4.48 -9.578,7.988 -15.51,10.52 -5.928,2.528 -12.218,3.796 -18.871,3.796 h -9.761 v -19.305 h 9.761 c 4.05,0 7.883,-0.759 11.497,-2.277 3.616,-1.519 6.761,-3.616 9.436,-6.291 2.678,-2.677 4.772,-5.822 6.291,-9.436 1.518,-3.616 2.277,-7.449 2.277,-11.496 v -87.632 h 19.087 z" id="path13" inkscape:connector-curvature="0" style="fill:#ffffff" />
	<path d="m 382.577,-412.6 13.665,13.665 -6.724,6.725 c -4.63,4.63 -9.907,8.171 -15.835,10.628 -5.931,2.461 -12.146,3.688 -18.654,3.688 -6.507,0 -12.727,-1.227 -18.654,-3.688 -5.931,-2.457 -11.208,-5.998 -15.834,-10.628 -4.772,-4.772 -8.317,-10.158 -10.628,-16.16 -2.315,-5.999 -3.471,-12.109 -3.471,-18.329 0,-6.216 1.155,-12.29 3.471,-18.22 2.311,-5.928 5.856,-11.28 10.628,-16.051 4.772,-4.772 10.158,-8.352 16.16,-10.737 5.999,-2.386 12.109,-3.579 18.329,-3.579 6.216,0 12.327,1.193 18.329,3.579 5.999,2.386 11.388,5.965 16.16,10.737 l 6.724,6.724 -54.011,54.011 c 5.494,2.749 11.313,3.654 17.462,2.712 6.145,-0.938 11.53,-3.722 16.159,-8.352 l 6.724,-6.725 z m -48.371,-34.922 c -5.786,5.785 -8.677,12.727 -8.677,20.823 0,4.484 1.01,8.751 3.037,12.798 1.735,-1.735 4.372,-4.372 7.917,-7.917 3.542,-3.542 7.301,-7.301 11.279,-11.28 3.976,-3.976 7.809,-7.771 11.496,-11.388 3.688,-3.613 6.542,-6.433 8.568,-8.459 -5.497,-2.745 -11.316,-3.688 -17.461,-2.82 -6.147,0.867 -11.532,3.616 -16.159,8.243 z" id="path15" inkscape:connector-curvature="0" style="fill:#ffffff" />
	<path d="m 417.064,-461.405 c 4.772,-4.772 10.157,-8.351 16.16,-10.737 5.999,-2.386 12.109,-3.579 18.329,-3.579 6.216,0 12.326,1.193 18.328,3.579 5.999,2.386 11.389,5.965 16.16,10.737 l 6.725,6.724 -13.448,13.666 -6.941,-6.725 c -2.895,-2.891 -6.148,-5.06 -9.762,-6.507 -3.615,-1.443 -7.304,-2.169 -11.062,-2.169 -3.762,0 -7.45,0.726 -11.062,2.169 -3.616,1.447 -6.87,3.617 -9.762,6.507 -2.895,2.749 -5.062,5.931 -6.507,9.544 -1.447,3.616 -2.169,7.304 -2.169,11.062 0,3.762 0.722,7.449 2.169,11.062 1.444,3.616 3.612,6.87 6.507,9.761 5.782,5.786 12.724,8.677 20.824,8.677 3.904,0 7.663,-0.722 11.279,-2.169 3.613,-1.444 6.795,-3.613 9.544,-6.508 l 6.941,-6.725 13.448,13.666 -6.725,6.725 c -4.771,4.771 -10.161,8.351 -16.16,10.736 -6.002,2.387 -12.112,3.579 -18.328,3.579 -6.22,0 -12.33,-1.192 -18.329,-3.579 -6.003,-2.386 -11.388,-5.965 -16.16,-10.736 -4.771,-4.772 -8.317,-10.12 -10.629,-16.052 -2.314,-5.928 -3.471,-12.039 -3.471,-18.329 0,-6.291 1.156,-12.398 3.471,-18.329 2.313,-5.926 5.859,-11.278 10.63,-16.05 z" id="path17" inkscape:connector-curvature="0" style="fill:#ffffff" />
	<path d="m 561.651,-397.633 v 19.305 h -9.544 c -6.653,0 -12.943,-1.264 -18.871,-3.796 -5.932,-2.528 -11.137,-6.036 -15.618,-10.52 -4.483,-4.481 -7.991,-9.687 -10.52,-15.618 -2.532,-5.928 -3.796,-12.218 -3.796,-18.871 v -87.632 h 19.305 v 39.635 h 39.044 v 19.305 h -39.044 v 21.397 7.295 c 0,4.05 0.759,7.883 2.277,11.496 1.519,3.616 3.613,6.762 6.291,9.436 2.674,2.678 5.819,4.772 9.436,6.291 3.613,1.518 7.446,2.277 11.496,2.277 h 9.544 z" id="path19" inkscape:connector-curvature="0" style="fill:#ffffff" />
	<path d="m 596.731,-475.721 v 97.393 h -19.088 v -97.393 h 19.088 z" id="path21" inkscape:connector-curvature="0" style="fill:#ffffff" />
	<polygon points="634.172,-475.721 615.084,-475.721 615.084,-378.328 634.032,-378.328 634.06,-378.301 634.077,-378.328 634.172,-378.328 634.172,-378.465 701.073,-475.306 681.998,-475.375 634.172,-410.115 " id="polygon23" style="fill:#ffffff" />
</g>


</svg>